<mxfile host="65bd71144e">
    <diagram id="-Iw4SaYQX7TKrt9MFgv3" name="Page-1">
        <mxGraphModel dx="752" dy="544" grid="1" gridSize="10" guides="1" tooltips="1" connect="1" arrows="1" fold="1" page="1" pageScale="1" pageWidth="850" pageHeight="1100" math="0" shadow="0">
            <root>
                <mxCell id="0"/>
                <mxCell id="1" parent="0"/>
                <mxCell id="28" value="" style="group" parent="1" vertex="1" connectable="0">
                    <mxGeometry x="215" y="380" width="420" height="340" as="geometry"/>
                </mxCell>
                <mxCell id="2" value="" style="rounded=0;whiteSpace=wrap;html=1;fillStyle=auto;" parent="28" vertex="1">
                    <mxGeometry width="420" height="340" as="geometry"/>
                </mxCell>
                <mxCell id="20" value="" style="ellipse;whiteSpace=wrap;html=1;aspect=fixed;fillStyle=solid;fillColor=#fff2cc;strokeColor=#d6b656;opacity=50;gradientColor=#ffd966;" parent="28" vertex="1">
                    <mxGeometry x="130" y="170" width="160" height="160" as="geometry"/>
                </mxCell>
                <mxCell id="3" value="" style="ellipse;whiteSpace=wrap;html=1;aspect=fixed;fillStyle=solid;fillColor=#647687;strokeColor=#314354;opacity=50;fontColor=#ffffff;" parent="28" vertex="1">
                    <mxGeometry x="10" y="10" width="160" height="160" as="geometry"/>
                </mxCell>
                <mxCell id="17" value="" style="ellipse;whiteSpace=wrap;html=1;aspect=fixed;fillStyle=solid;fillColor=#bac8d3;strokeColor=#23445d;opacity=50;" parent="28" vertex="1">
                    <mxGeometry x="250" y="10" width="160" height="160" as="geometry"/>
                </mxCell>
                <mxCell id="19" value="" style="ellipse;whiteSpace=wrap;html=1;aspect=fixed;fillStyle=solid;fillColor=#f5f5f5;strokeColor=#666666;opacity=50;gradientColor=#b3b3b3;" parent="28" vertex="1">
                    <mxGeometry x="60" y="130" width="160" height="160" as="geometry"/>
                </mxCell>
                <mxCell id="21" value="" style="ellipse;whiteSpace=wrap;html=1;aspect=fixed;fillStyle=solid;fillColor=#d5e8d4;strokeColor=#82b366;opacity=50;gradientColor=#97d077;" parent="28" vertex="1">
                    <mxGeometry x="200" y="130" width="160" height="160" as="geometry"/>
                </mxCell>
                <mxCell id="18" value="" style="ellipse;whiteSpace=wrap;html=1;aspect=fixed;fillStyle=solid;fillColor=#dae8fc;strokeColor=#6c8ebf;opacity=50;gradientColor=#7ea6e0;" parent="28" vertex="1">
                    <mxGeometry x="130" y="50" width="160" height="160" as="geometry"/>
                </mxCell>
                <mxCell id="22" value="Data Scientist" style="text;html=1;strokeColor=none;fillColor=none;align=center;verticalAlign=middle;whiteSpace=wrap;rounded=0;opacity=50;" parent="28" vertex="1">
                    <mxGeometry x="30" y="30" width="60" height="30" as="geometry"/>
                </mxCell>
                <mxCell id="23" value="MLOps Engineer" style="text;html=1;strokeColor=none;fillColor=none;align=center;verticalAlign=middle;whiteSpace=wrap;rounded=0;opacity=50;" parent="28" vertex="1">
                    <mxGeometry x="180" y="80" width="60" height="30" as="geometry"/>
                </mxCell>
                <mxCell id="24" value="Backend Engineer" style="text;html=1;strokeColor=none;fillColor=none;align=center;verticalAlign=middle;whiteSpace=wrap;rounded=0;opacity=50;" parent="28" vertex="1">
                    <mxGeometry x="310" y="40" width="60" height="30" as="geometry"/>
                </mxCell>
                <mxCell id="25" value="DevOps Engineer" style="text;html=1;strokeColor=none;fillColor=none;align=center;verticalAlign=middle;whiteSpace=wrap;rounded=0;opacity=50;" parent="28" vertex="1">
                    <mxGeometry x="290" y="195" width="60" height="30" as="geometry"/>
                </mxCell>
                <mxCell id="26" value="Data Engineer" style="text;html=1;strokeColor=none;fillColor=none;align=center;verticalAlign=middle;whiteSpace=wrap;rounded=0;opacity=50;" parent="28" vertex="1">
                    <mxGeometry x="70" y="195" width="60" height="30" as="geometry"/>
                </mxCell>
                <mxCell id="27" value="Software Engineer" style="text;html=1;strokeColor=none;fillColor=none;align=center;verticalAlign=middle;whiteSpace=wrap;rounded=0;opacity=50;" parent="28" vertex="1">
                    <mxGeometry x="180" y="290" width="60" height="30" as="geometry"/>
                </mxCell>
            </root>
        </mxGraphModel>
    </diagram>
</mxfile>